<?xml version="1.0" standalone="no"?>
<!DOCTYPE svg PUBLIC "-//W3C//DTD SVG 20010904//EN"
 "http://www.w3.org/TR/2001/REC-SVG-20010904/DTD/svg10.dtd">
<svg version="1.0" xmlns="http://www.w3.org/2000/svg"
 width="260.000000pt" height="260.000000pt" viewBox="0 0 260.000000 260.000000"
 preserveAspectRatio="xMidYMid meet">
<metadata>
Created by potrace 1.11, written by Peter Selinger 2001-2013
</metadata>
<g transform="translate(0.000000,260.000000) scale(0.100000,-0.100000)"
fill="#000000" stroke="none">
<path d="M848 2398 c-55 -12 -125 -73 -159 -139 -25 -50 -64 -200 -74 -285
l-7 -62 35 -4 c34 -4 35 -3 42 36 35 221 268 305 386 140 49 -69 74 -134 118
-307 l19 -78 -63 -137 c-34 -75 -79 -172 -99 -214 -68 -146 -103 -223 -126
-273 -12 -27 -37 -81 -55 -120 -94 -202 -199 -429 -255 -550 -15 -33 -39 -84
-54 -114 -14 -30 -24 -56 -22 -58 4 -4 125 -6 227 -4 l46 1 47 101 c27 55 79
167 118 247 38 81 82 174 98 207 15 33 62 131 104 218 41 86 87 184 102 217
15 33 28 59 29 58 2 -2 5 -21 9 -43 23 -157 104 -580 131 -682 49 -186 123
-298 227 -343 42 -18 65 -21 114 -17 164 13 263 157 281 410 l6 89 -29 -4
c-26 -3 -31 -10 -52 -72 -29 -87 -53 -121 -104 -147 -32 -16 -53 -20 -95 -16
-78 7 -131 48 -181 138 -43 78 -69 171 -122 439 -5 25 -21 99 -35 165 -14 66
-28 134 -31 150 -2 17 -7 37 -9 45 -2 8 -7 29 -10 45 -13 79 -63 304 -86 390
-38 146 -89 305 -121 375 -68 149 -207 228 -350 198z"/>
</g>
</svg>
