<?xml version="1.0" standalone="no"?>
<!DOCTYPE svg PUBLIC "-//W3C//DTD SVG 20010904//EN"
 "http://www.w3.org/TR/2001/REC-SVG-20010904/DTD/svg10.dtd">
<svg version="1.0" xmlns="http://www.w3.org/2000/svg"
 width="260.000000pt" height="260.000000pt" viewBox="0 0 260.000000 260.000000"
 preserveAspectRatio="xMidYMid meet">
<metadata>
Created by potrace 1.11, written by Peter Selinger 2001-2013
</metadata>
<g transform="translate(0.000000,260.000000) scale(0.100000,-0.100000)"
fill="#000000" stroke="none">
<path d="M110 2568 c-26 -14 -57 -41 -75 -66 l-30 -44 0 -1158 0 -1158 30 -44
c18 -25 49 -52 75 -66 l44 -22 1146 0 c1097 0 1147 1 1186 19 50 23 90 72 101
126 5 22 9 549 8 1172 l0 1132 -30 43 c-18 25 -49 52 -75 66 l-44 22 -1146 0
-1146 0 -44 -22z m2355 -54 c19 -9 42 -28 52 -42 16 -26 17 -91 17 -1172 0
-1082 -1 -1146 -17 -1172 -42 -61 25 -58 -1222 -58 -1114 0 -1138 0 -1169 20
-65 39 -61 -38 -61 1214 0 1081 1 1142 18 1167 42 62 -27 59 1215 59 1015 0
1137 -2 1167 -16z"/>
<path d="M1475 2423 c-75 -17 -153 -87 -204 -182 -27 -52 -91 -228 -91 -252 0
-5 11 -9 24 -9 20 0 29 11 54 65 18 37 52 86 80 114 110 109 208 65 247 -111
16 -73 14 -419 -2 -440 -6 -7 -106 -146 -223 -308 -117 -162 -241 -333 -275
-380 -204 -279 -487 -673 -491 -684 -4 -11 23 -14 146 -14 l152 0 340 512 340
511 -6 -55 c-3 -30 -8 -100 -12 -155 -3 -55 -8 -108 -9 -117 -9 -46 -20 -270
-20 -408 0 -125 4 -165 19 -208 68 -198 279 -164 390 62 27 57 86 228 86 252
0 2 -12 4 -28 4 -24 0 -30 -7 -52 -62 -30 -76 -86 -153 -124 -172 -61 -30
-124 16 -148 109 -20 77 -16 518 7 735 2 19 6 82 10 140 3 58 8 123 10 145 19
236 23 558 6 640 -6 28 -13 61 -15 75 -17 79 -101 190 -146 190 -10 0 -24 2
-32 4 -7 2 -22 2 -33 -1z"/>
</g>
</svg>
